<?xml version="1.0" encoding="UTF-8"?>
<svg xmlns="http://www.w3.org/2000/svg" viewBox="0 0 128 128" width="128" height="128" role="img" aria-labelledby="title desc">
<title>Blue rain dome icon</title>
<desc>A blue dome-shaped icon with small rain drops underneath.</desc>
<defs>
  <linearGradient id="blueGrad" x1="0" y1="18" x2="0" y2="104" gradientUnits="userSpaceOnUse">
    <stop offset="0" stop-color="#A4E4FF"/>
    <stop offset="0.55" stop-color="#78CFF2"/>
    <stop offset="1" stop-color="#5CB8DE"/>
  </linearGradient>
  <filter id="soft" x="-20%" y="-20%" width="140%" height="140%">
    <feGaussianBlur in="SourceAlpha" stdDeviation="1.5" result="blur"/>
    <feOffset dy="1"/>
    <feComposite in2="SourceAlpha" operator="out"/>
    <feColorMatrix values="0 0 0 0 0.25 0 0 0 0 0.68 0 0 0 0 0.86 0 0 0 .45 0"/>
    <feBlend in="SourceGraphic"/>
  </filter>
</defs>
<g filter="url(#soft)" fill="url(#blueGrad)">
  <path d="M14 65C25 38 43 25 64 25s39 13 50 40c-10 12-27 19-50 19s-40-7-50-19Z"/>
  <path d="M18 82c4 1 6 3 6 7 0 6-6 9-11 8 3-5 1-11 5-15Z" opacity=".92"/>
  <rect x="42" y="84" width="8" height="20" rx="4" opacity=".9"/>
  <rect x="61" y="87" width="8" height="22" rx="4" opacity=".92"/>
  <rect x="80" y="84" width="8" height="20" rx="4" opacity=".9"/>
  <path d="M104 82c4 4 2 10 5 15-6 1-11-2-11-8 0-4 2-6 6-7Z" opacity=".88"/>
</g>
</svg>
